USFL
nRows=107
nColumns=2
inDegrees=yes
endheader
time	soleus_r	
3.14919	 55.097794	
3.22077	 55.311010	
3.29234	 55.065230	
3.36391	 55.201828	
3.43548	 55.262648	
3.50706	 55.517734	
3.57863	 55.458280	
3.6502	 55.432663	
3.72177	 55.318543	
3.79335	 55.089841	
3.86492	 55.139172	
3.93649	 55.097566	
4.00806	 55.065460	
4.07964	 55.146764	
4.15121	 55.016599	
4.22278	 55.233456	
4.29435	 55.144709	
4.36593	 55.116153	
4.4375	 55.111779	
4.50907	 55.200265	
4.58065	 55.190410	
4.65222	 55.306533	
4.72379	 55.151308	
4.79536	 55.173863	
4.86694	 55.064332	
4.93851	 55.057707	
5.01008	 55.254489	
5.08165	 55.329829	
5.15323	 55.212583	
5.2248	 55.285787	
5.29637	 55.314879	
5.36794	 55.711854	
5.43952	 55.185448	
5.51109	 55.909401	
5.58266	 55.851465	
5.65423	 44.153885	
5.72581	 39.703483	
5.79738	 39.619900	
5.86895	 39.887493	
5.94052	 39.411594	
6.0121	 39.386372	
6.08367	 40.068574	
6.15524	 37.954119	
6.22681	 37.729127	
6.29839	 33.271699	
6.36996	 33.076745	
6.44153	 33.152973	
6.5131	 32.681420	
6.58468	 32.339422	
6.65625	 32.554365	
6.72782	 32.572165	
6.7994	 32.292354	
6.87097	 32.509840	
6.94254	 31.945592	
7.01411	 31.924185	
7.08569	 32.109100	
7.15726	 31.939644	
7.22883	 31.740576	
7.3004	 31.756068	
7.37198	 31.596433	
7.44355	 31.553398	
7.51512	 31.628957	
7.58669	 31.645586	
7.65827	 31.641429	
7.72984	 31.730785	
7.80141	 31.416283	
7.87298	 31.431524	
7.94456	 31.563274	
8.01613	 31.576105	
8.0877	 31.413085	
8.15927	 31.401830	
8.23085	 31.366399	
8.30242	 31.385543	
8.37399	 31.496848	
8.44556	 31.448963	
8.51714	 31.349439	
8.58871	 31.286236	
8.66028	 31.166504	
8.73185	 30.981000	
8.80343	 31.021688	
8.875	 31.089328	
8.94657	 30.967642	
9.01815	 30.943026	
9.08972	 31.027937	
9.16129	 31.038840	
9.23286	 30.951956	
9.30444	 30.774512	
9.37601	 30.957763	
9.44758	 31.159838	
9.51915	 31.099473	
9.59073	 31.429113	
9.6623	 31.366941	
9.73387	 31.180865	
9.80544	 31.265938	
9.87702	 31.180301	
9.94859	 31.223117	
10.0202	 31.030926	
10.0917	 31.181698	
10.1633	 31.172436	
10.2349	 30.977680	
10.3065	 30.931399	
10.378	 31.690742	
10.4496	 31.844180	
10.5212	 31.630386	
10.5927	 31.619893	
10.6643	 31.371493	
10.7359	 31.343281	
